# xmcd CD database file
#
# Track frame offsets:
#	150
#	21190
#	41640
#	62695
#
# Disc length: 1101 seconds
#
# Revision: 0
# Processed by: cddbd v1.5.1PL2 Copyright (c) Steve Scherf et al.
# Submitted via: CDex 1.50Beta5
#
DISCID=2d044b04
DTITLE=SONOMI - 晴天 feat. CUEZERO, KREVA
DYEAR=1900
DGENRE=Tribal
TTITLE0=雨天
TTITLE1=晴天 feat. CUEZERO, KREVA
TTITLE2=雨天 Instrumental
TTITLE3=晴天 feat. CUEZERO, KREVA instrumental
EXTD=
EXTT0=
EXTT1=
EXTT2=
EXTT3=
PLAYORDER=
